<svg width="78" height="81" viewBox="0 0 78 81" fill="none" xmlns="http://www.w3.org/2000/svg">
<path d="M69.1046 9.07302L10.7304 13.4322C4.80367 13.4322 -0.000488281 18.2704 -0.000488281 24.2379V61.5515C-0.000488281 66.9693 3.96023 71.4538 9.12467 72.234C9.94545 72.3578 10.561 73.0503 10.561 73.8852V78.0237C10.561 80.6701 13.7386 81.9951 15.5966 80.1241L19.5645 76.1286C21.9624 73.7134 25.2151 72.3566 28.6068 72.3566H67.1484C73.0751 72.3566 77.8799 67.5189 77.8799 61.5509V25.3277C77.8799 19.3602 79.7041 7.98322 69.1046 9.07302Z" fill="url(#paint0_linear)"/>
<path fill-rule="evenodd" clip-rule="evenodd" d="M53.9382 22.7588C51.1104 22.7586 49.1647 19.8921 49.8693 17.1535C50.4967 14.7152 50.9231 12.2267 51.1485 9.69048C51.6597 3.90542 46.6029 -0.817367 40.873 0.118925L40.7306 0.140577C38.5404 0.498821 36.9342 2.41011 36.9802 4.62913C37.1065 10.4247 35.8506 15.7387 33.1542 20.8108C32.5004 22.0405 31.1924 22.7572 29.7997 22.7571L26.1848 22.7568C23.9756 22.7567 22.1846 24.5476 22.1846 26.7568V59.109C22.1846 61.3181 23.9754 63.109 26.1846 63.109H53.2101C58.4834 63.109 62.9838 59.2969 63.8518 54.0958L66.9606 30.6425C67.6488 26.5155 64.4673 22.7592 60.2838 22.7592L53.9382 22.7588Z" fill="url(#paint1_linear)"/>
<path d="M51.1832 63.109H53.2087C56.921 63.109 60.2489 61.218 62.1976 58.2845L31.899 22.7572L22.1831 22.7566V63.109H51.1832Z" fill="url(#paint2_linear)"/>
<path d="M29.907 65.5767H25.0871C23.9238 65.5767 22.981 64.6338 22.981 63.4705V22.3957C22.981 21.2324 23.9238 20.2896 25.0871 20.2896H29.907C31.0703 20.2896 32.0132 21.2324 32.0132 22.3957V63.4705C32.0132 64.6338 31.0703 65.5767 29.907 65.5767Z" fill="url(#paint3_linear)"/>
<path d="M26.6854 20.2896H25.0871C23.9238 20.2896 22.981 21.2324 22.981 22.3957V63.4705C22.981 64.6338 23.9238 65.5767 25.0871 65.5767H29.907C31.0703 65.5767 32.0132 64.6338 32.0132 63.4705V25.6166L26.6854 20.2896Z" fill="url(#paint4_linear)"/>
<path d="M25.1866 66.627H16.4175C15.2909 66.627 14.377 65.713 14.377 64.5865V21.2796C14.377 20.1523 15.2903 19.239 16.4175 19.239H25.1866C26.3138 19.239 27.2272 20.1523 27.2272 21.2796V64.5865C27.2272 65.713 26.3132 66.627 25.1866 66.627Z" fill="#004582"/>
<defs>
<linearGradient id="paint0_linear" x1="11.9995" y1="13.5" x2="77.9995" y2="93" gradientUnits="userSpaceOnUse">
<stop stop-color="#00D9EF"/>
<stop offset="0.53" stop-color="#00C9E0"/>
<stop offset="1" stop-color="#00B6CE"/>
</linearGradient>
<linearGradient id="paint1_linear" x1="21.9971" y1="4" x2="71.1553" y2="31.8138" gradientUnits="userSpaceOnUse">
<stop stop-color="#FFAF00"/>
<stop offset="1" stop-color="#FFD300"/>
</linearGradient>
<linearGradient id="paint2_linear" x1="44.6039" y1="49.0014" x2="5.26336" y2="35.4087" gradientUnits="userSpaceOnUse">
<stop stop-color="#E58200" stop-opacity="0"/>
<stop offset="0.5669" stop-color="#C35E2D" stop-opacity="0.568627"/>
<stop offset="1" stop-color="#A64153"/>
</linearGradient>
<linearGradient id="paint3_linear" x1="24.4089" y1="33.7436" x2="39.3275" y2="78.0933" gradientUnits="userSpaceOnUse">
<stop stop-color="#F2F2F2"/>
<stop offset="1" stop-color="#C3C3C3"/>
</linearGradient>
<linearGradient id="paint4_linear" x1="27.013" y1="43.5978" x2="11.2385" y2="35.965" gradientUnits="userSpaceOnUse">
<stop stop-color="#A1B5D8" stop-opacity="0"/>
<stop offset="0.0421" stop-color="#9DB1D2" stop-opacity="0.043137"/>
<stop offset="0.2868" stop-color="#8B9CB5" stop-opacity="0.286275"/>
<stop offset="0.53" stop-color="#7E8EA1" stop-opacity="0.529412"/>
<stop offset="0.7693" stop-color="#778594" stop-opacity="0.768627"/>
<stop offset="1" stop-color="#748290"/>
</linearGradient>
</defs>
</svg>
